<?xml version="1.0" standalone="no"?>
<!DOCTYPE svg PUBLIC "-//W3C//DTD SVG 20010904//EN"
 "http://www.w3.org/TR/2001/REC-SVG-20010904/DTD/svg10.dtd">
<svg version="1.0" xmlns="http://www.w3.org/2000/svg"
 width="618.000000pt" height="618.000000pt" viewBox="0 0 618.000000 618.000000"
 preserveAspectRatio="xMidYMid meet">

<g transform="translate(0.000000,618.000000) scale(0.100000,-0.100000)"
fill="#000000" stroke="none">
<path d="M2715 6169 c-22 -5 -103 -20 -180 -34 -286 -51 -497 -122 -785 -263
-204 -100 -425 -237 -555 -342 -120 -98 -124 -101 -226 -196 -148 -139 -409
-441 -409 -474 0 -4 -4 -10 -9 -12 -24 -9 -261 -418 -261 -451 0 -9 -10 -23
-21 -31 -12 -8 -23 -25 -25 -38 -1 -13 -15 -54 -29 -93 -101 -269 -161 -501
-195 -756 -28 -211 -27 -607 2 -809 101 -690 401 -1294 883 -1774 105 -105
261 -240 340 -296 461 -323 873 -496 1371 -574 149 -24 187 -26 481 -26 257 0
329 3 373 15 30 9 91 20 135 25 44 5 103 16 130 24 28 9 81 21 118 26 128 19
499 157 634 236 23 13 46 24 52 24 5 0 30 13 54 30 25 16 48 30 51 30 6 0 94
57 121 78 6 4 42 28 80 53 195 129 414 328 589 534 55 66 106 128 111 136 6 9
33 46 60 83 97 130 325 534 325 576 0 6 11 35 24 63 13 29 27 63 31 77 4 14
13 39 20 55 7 17 23 66 36 110 12 44 25 89 30 100 5 11 14 43 20 70 6 28 13
59 16 70 10 42 43 232 47 270 2 22 9 79 16 126 17 129 7 564 -16 699 -4 19 -8
47 -9 62 -4 37 -26 160 -33 178 -3 8 -7 26 -8 39 -2 12 -13 55 -25 95 -13 39
-24 80 -25 91 -1 11 -8 34 -15 50 -7 17 -13 35 -14 40 -9 39 -61 176 -76 201
-11 17 -19 39 -19 48 0 19 -40 99 -52 104 -5 2 -8 11 -8 20 0 10 -10 33 -21
52 -12 19 -42 73 -67 120 -52 100 -172 282 -213 325 -16 17 -29 35 -29 39 0 5
-9 18 -19 30 -11 11 -41 46 -66 76 -26 30 -81 93 -123 139 -43 46 -78 87 -80
92 -2 5 -7 9 -12 9 -4 0 -36 26 -70 57 -205 190 -587 445 -748 500 -25 8 -57
23 -71 33 -24 17 -86 43 -271 113 -95 36 -315 92 -460 117 -69 11 -141 25
-161 31 -45 11 -689 10 -744 -2z m-350 -362 c41 -31 -10 -91 -57 -66 -23 12
-23 55 0 68 23 14 35 13 57 -2z m646 -52 c4 -27 9 -87 13 -131 l5 -82 -42 -11
c-55 -14 -263 -25 -270 -14 -3 4 -8 35 -11 68 -13 123 -17 161 -22 183 -4 22
-2 23 38 20 l43 -3 8 -60 c4 -33 10 -80 13 -104 l6 -43 68 4 c38 2 72 7 76 10
3 4 1 50 -5 103 -6 53 -9 101 -5 106 3 6 22 9 42 7 36 -3 37 -4 43 -53z m430
19 c22 -12 58 -18 104 -19 50 -1 82 -8 111 -23 44 -22 114 -21 114 3 0 22 48
57 88 62 52 7 130 -12 163 -40 38 -32 52 -81 39 -137 -6 -25 -21 -90 -34 -145
l-24 -100 -33 3 c-19 2 -37 7 -40 10 -4 4 7 69 24 144 36 158 33 180 -29 197
-46 13 -83 -2 -63 -25 6 -8 21 -14 33 -14 32 0 48 -15 44 -41 -2 -17 -10 -24
-25 -24 -32 -1 -38 -11 -57 -100 -28 -125 -24 -118 -59 -111 -17 4 -35 10 -40
15 -4 4 1 49 13 99 25 113 25 122 1 122 -16 0 -18 -6 -14 -44 10 -89 -39 -166
-107 -166 -93 0 -122 103 -58 207 l19 32 -33 9 c-39 11 -53 5 -37 -14 15 -18
7 -89 -15 -136 -17 -36 -50 -58 -87 -58 -32 0 -76 27 -83 52 -15 59 2 137 38
167 13 11 14 16 4 22 -15 10 -118 12 -118 3 0 -3 11 -15 24 -25 33 -26 39 -50
27 -97 -23 -84 -97 -111 -153 -55 -26 26 -30 38 -30 81 0 76 47 139 121 163
39 13 133 4 172 -17z m-892 -96 c52 -129 61 -152 72 -171 8 -14 4 -19 -18 -28
-101 -37 -283 -93 -287 -88 -14 15 -107 263 -103 273 8 21 60 27 73 10 7 -8
26 -52 44 -97 18 -45 36 -85 39 -90 8 -8 130 19 144 32 4 4 -11 51 -33 104
-22 53 -40 103 -40 111 0 13 11 17 66 25 6 0 25 -36 43 -81z m1879 -70 c18
-18 14 -56 -7 -68 -24 -12 -42 -6 -58 19 -23 37 34 80 65 49z m-2321 -37 c83
-38 126 -147 84 -215 -22 -35 -92 -76 -131 -76 -35 0 -83 34 -128 91 -49 64
-77 78 -114 58 -29 -15 -38 -28 -38 -55 0 -19 5 -20 53 -16 51 4 56 2 85 -29
53 -56 36 -118 -40 -144 -32 -11 -41 -10 -80 10 -117 59 -135 223 -31 285 86
51 149 35 229 -56 57 -64 86 -78 112 -52 44 44 -37 162 -98 143 -12 -4 -24 2
-34 17 -22 30 -20 35 12 46 41 16 73 14 119 -7z m2225 -30 c35 -16 84 -39 111
-50 26 -11 47 -26 47 -34 0 -23 -26 -38 -53 -32 -38 10 -42 -12 -8 -51 36 -40
39 -70 11 -123 -28 -55 -74 -91 -117 -91 -34 0 -54 7 -160 56 -62 29 -79 30
-92 7 -9 -17 -11 -17 -45 0 -20 9 -36 21 -36 26 0 5 14 21 31 35 37 31 76 33
128 6 54 -27 143 -60 163 -60 30 0 83 88 64 107 -3 3 -20 -9 -38 -27 -41 -40
-66 -50 -104 -42 -69 16 -124 74 -124 132 0 27 52 80 79 80 13 0 26 12 37 33
17 32 34 57 40 57 2 0 31 -13 66 -29z m-2821 -241 l24 -20 -23 -20 c-13 -11
-21 -24 -17 -30 8 -12 35 -13 35 -1 0 15 68 33 98 26 38 -8 100 -73 117 -120
16 -49 5 -85 -38 -121 -99 -83 -101 -85 -88 -106 7 -11 11 -21 9 -21 -2 -1
-15 -13 -30 -26 l-27 -24 -20 24 c-11 13 -20 38 -21 56 0 28 10 41 73 94 39
35 73 70 75 80 4 21 -72 103 -89 97 -26 -9 -20 -30 20 -67 23 -21 41 -42 41
-46 0 -10 -43 -44 -55 -45 -6 0 -46 36 -90 80 -44 44 -83 80 -86 80 -4 0 -10
-8 -13 -17 -5 -12 15 -38 71 -95 l78 -78 -27 -27 -27 -27 -108 105 c-59 57
-107 106 -106 108 0 6 187 159 194 160 4 1 17 -8 30 -19z m3384 -147 c30 -35
34 -37 59 -25 65 29 141 2 186 -67 55 -82 39 -118 -100 -230 -135 -108 -136
-109 -168 -77 l-26 25 26 20 c14 11 44 35 66 53 23 18 64 51 92 72 28 22 53
50 56 63 11 44 -51 102 -79 74 -7 -7 -5 -16 8 -31 17 -19 17 -20 -6 -39 -24
-19 -24 -19 -46 1 -19 17 -25 19 -38 8 -13 -11 -13 -15 -2 -29 22 -26 27 -48
16 -79 -11 -33 -75 -82 -131 -102 -49 -18 -78 -3 -173 89 -67 64 -77 71 -96
61 -18 -10 -25 -8 -50 16 l-30 28 37 19 c56 29 94 13 179 -73 38 -38 78 -70
88 -70 39 0 120 61 103 77 -4 4 -22 -1 -42 -12 -45 -24 -83 -23 -127 3 -50 32
-73 83 -58 133 15 49 47 71 99 68 33 -2 47 3 76 29 20 18 39 32 43 32 3 0 20
-17 38 -37z m-1548 -203 c250 -37 465 -112 678 -237 166 -98 249 -163 400
-317 221 -224 379 -491 465 -786 12 -41 22 -77 22 -80 0 -3 4 -16 9 -29 13
-34 49 -344 49 -424 0 -71 -36 -413 -46 -428 -3 -5 -7 -17 -9 -26 -39 -165
-116 -355 -210 -518 -115 -200 -306 -412 -500 -555 -89 -66 -108 -78 -237
-151 -127 -73 -326 -146 -486 -179 -53 -11 -119 -25 -147 -31 -27 -7 -131 -14
-230 -16 -184 -5 -226 0 -475 51 -417 85 -860 386 -1121 761 -142 204 -256
468 -300 696 -31 163 -34 195 -34 404 1 230 20 363 79 550 42 132 54 162 116
285 100 199 185 317 341 477 172 177 301 270 534 384 343 168 717 225 1102
169z m-2252 -102 c30 -13 30 -16 5 -47 -14 -17 -24 -20 -33 -13 -6 5 -30 13
-52 16 -75 12 -146 -49 -130 -111 15 -63 116 -122 208 -123 50 0 61 4 82 26
14 15 25 35 25 46 0 28 -49 70 -79 66 -37 -5 -36 -22 4 -41 40 -19 41 -23 17
-55 l-17 -22 -55 28 c-30 16 -80 42 -110 57 -30 16 -56 29 -58 30 -7 5 22 55
32 55 6 -1 30 -11 54 -23 l43 -23 35 33 c39 37 67 41 117 17 144 -69 68 -263
-102 -264 -68 0 -187 55 -224 103 -77 102 -37 217 91 258 32 10 112 3 147 -13z
m4160 -119 c9 -17 15 -32 13 -33 -11 -9 -111 -58 -155 -77 -29 -12 -53 -24
-53 -27 0 -3 32 -59 72 -124 68 -114 70 -119 52 -133 -10 -8 -24 -15 -30 -15
-9 0 -56 73 -177 278 -11 18 -18 34 -16 36 2 1 33 15 68 32 36 16 94 43 130
61 36 17 69 32 73 32 4 1 15 -13 23 -30z m165 -69 c25 -25 25 -32 1 -54 -24
-22 -49 -18 -68 11 -13 19 -12 24 6 42 26 26 36 26 61 1z m-4363 -202 c15 -7
29 -13 31 -14 2 -1 -5 -17 -15 -36 -9 -18 -45 -96 -79 -173 -40 -91 -66 -139
-75 -138 -16 2 -149 50 -227 82 -29 11 -61 21 -70 21 -33 0 -42 20 -25 54 8
17 17 32 18 34 3 4 74 -21 207 -71 l67 -26 27 57 c14 31 39 88 55 126 26 62
45 96 55 96 2 0 16 -5 31 -12z m-249 -54 c12 -8 22 -22 22 -31 0 -24 -30 -53
-53 -53 -26 0 -57 28 -57 51 0 18 35 49 55 49 6 0 21 -7 33 -16z m4700 -86
c11 -29 10 -35 -5 -45 -9 -7 -24 -13 -33 -13 -16 0 -86 -22 -152 -49 l-28 -10
46 -108 c61 -141 61 -146 30 -161 -22 -10 -27 -8 -41 11 -8 12 -15 25 -15 30
0 4 -8 27 -19 50 -46 103 -91 214 -91 223 0 8 256 101 285 103 6 1 16 -14 23
-31z m-4885 -205 c4 -3 5 -20 1 -39 -3 -19 -4 -34 -1 -34 13 0 280 -70 285
-74 3 -3 -2 -23 -10 -43 -17 -44 -21 -45 -143 -8 -44 13 -99 28 -123 34 -41 9
-44 8 -53 -17 -5 -14 -6 -28 -2 -32 4 -4 69 -22 143 -40 74 -19 137 -35 139
-37 4 -3 -17 -83 -22 -83 -8 0 -143 32 -192 45 -33 9 -85 22 -115 29 -35 8
-56 18 -58 28 -2 9 13 67 33 130 52 164 50 160 82 152 16 -4 32 -9 36 -11z
m5049 -302 c4 -31 -24 -39 -148 -42 l-94 -2 0 -34 0 -33 101 0 101 0 34 -34
c88 -88 -6 -196 -172 -196 -99 0 -110 13 -124 150 -5 58 -13 131 -16 163 l-7
57 44 1 c24 1 91 4 149 8 112 7 127 2 132 -38z m-4940 -106 c25 -9 58 -29 74
-46 25 -26 28 -36 26 -85 -1 -31 -6 -73 -11 -94 -9 -40 0 -60 26 -60 11 0 12
-9 7 -37 -9 -51 -14 -54 -52 -35 -59 29 -68 56 -52 157 13 83 13 87 -8 107
-25 25 -124 38 -137 18 -12 -20 9 -31 69 -37 62 -6 72 -16 62 -58 -6 -22 -12
-25 -49 -25 -23 0 -60 5 -82 10 -22 5 -61 12 -87 15 -43 6 -48 5 -48 -13 0
-21 10 -25 100 -37 25 -3 69 -11 98 -16 49 -10 52 -12 52 -40 0 -18 -6 -32
-16 -36 -16 -6 -118 6 -252 29 -65 11 -73 15 -68 33 2 11 12 67 22 124 19 109
27 122 70 102 20 -9 23 -16 18 -36 -5 -21 -3 -25 14 -25 15 0 22 9 27 30 14
66 97 89 197 55z m5058 -10 c6 -8 9 -23 5 -35 -5 -17 -13 -21 -43 -18 -37 3
-50 21 -38 54 7 18 60 18 76 -1z m-309 -595 c17 0 19 -8 19 -91 0 -88 1 -90
23 -87 20 3 22 9 25 81 l3 77 40 0 41 0 -4 -80 -3 -80 27 0 28 0 0 88 c0 49 2
91 5 94 3 3 22 2 43 -1 l37 -7 -4 -144 c-2 -80 -5 -147 -6 -150 -2 -3 -79 -3
-172 0 l-168 5 1 136 c1 148 6 174 30 165 9 -3 24 -6 35 -6z m-4759 -86 c3
-45 2 -46 -69 -116 -40 -38 -73 -72 -73 -75 0 -2 33 -3 73 -2 l72 2 0 -54 0
-54 -163 -5 c-89 -3 -167 -3 -172 -2 -6 2 -10 25 -10 50 0 45 2 49 78 119 l77
73 -71 -2 c-39 0 -76 2 -82 6 -7 4 -12 27 -12 51 0 43 0 44 38 48 20 2 98 4
173 5 l137 2 4 -46z m4831 -278 c67 -13 139 -27 160 -30 34 -6 37 -9 37 -41 0
-18 -4 -45 -9 -58 -9 -23 -12 -24 -58 -16 -26 5 -63 14 -81 20 -65 21 -43 0
37 -37 80 -36 81 -37 81 -74 0 -21 -6 -42 -12 -48 -7 -5 -53 -13 -103 -16 -88
-7 -125 -15 -69 -17 36 0 135 -21 150 -31 11 -7 3 -76 -11 -98 -3 -4 -35 1
-72 11 -38 10 -110 23 -161 30 -57 7 -96 17 -99 24 -2 7 2 44 9 81 16 79 20
81 131 83 38 1 66 4 63 9 -5 9 -56 35 -117 61 l-45 19 14 76 c8 42 19 76 24
76 4 0 63 -11 131 -24z m-5018 -121 c55 -9 127 -19 160 -23 58 -7 59 -8 68
-42 4 -19 12 -47 16 -62 11 -32 7 -36 -109 -108 -47 -29 -109 -69 -138 -88
-29 -19 -55 -32 -58 -29 -2 2 -10 27 -18 56 -13 50 -12 52 10 69 23 16 24 19
12 74 -10 49 -15 57 -36 60 -21 2 -27 12 -38 53 -17 66 -17 66 9 60 12 -2 67
-11 122 -20z m299 -335 c14 -41 37 -106 51 -143 14 -37 25 -74 25 -82 0 -16
-70 -39 -82 -27 -4 4 -13 25 -20 47 -8 24 -19 39 -28 38 -22 -2 -193 -64 -206
-74 -14 -11 -25 3 -46 59 l-17 42 32 13 c18 8 68 26 112 42 44 15 83 31 88 35
4 3 1 26 -8 49 -8 24 -15 47 -15 51 0 10 74 38 82 31 4 -3 18 -40 32 -81z
m4533 28 c18 -7 33 -18 33 -24 0 -7 -13 -47 -29 -88 -28 -73 -29 -77 -10 -86
16 -9 21 -5 34 26 8 20 20 54 27 76 10 35 14 39 37 33 56 -14 58 -33 18 -124
-16 -36 -17 -45 -6 -52 27 -17 35 -8 64 72 16 44 33 83 37 85 11 7 78 -18 78
-28 0 -4 -7 -22 -15 -40 -8 -18 -31 -79 -51 -136 -29 -82 -40 -102 -53 -98 -9
3 -52 18 -96 35 -44 16 -109 40 -145 54 -42 15 -64 29 -63 38 3 23 96 269 101
269 3 0 21 -5 39 -12z m-4407 -338 c11 -21 20 -45 20 -52 0 -10 -239 -134
-299 -156 -11 -4 -57 101 -46 105 6 2 71 35 145 72 74 38 141 69 147 70 7 0
22 -17 33 -39z m4366 -47 c66 -36 131 -73 147 -80 33 -18 33 -23 1 -79 l-26
-44 -37 21 c-20 12 -40 26 -45 31 -20 17 -35 7 -60 -38 -14 -26 -26 -48 -26
-50 0 -2 22 -15 49 -29 27 -13 52 -29 56 -34 4 -8 -30 -75 -51 -100 -2 -2 -48
23 -103 55 -55 33 -123 71 -150 86 l-50 27 26 48 c15 26 28 50 29 52 2 2 26
-11 55 -28 28 -18 52 -31 54 -29 20 27 55 85 55 93 0 6 -12 16 -27 23 -16 7
-39 21 -52 31 l-24 19 27 46 c15 25 28 46 30 46 2 0 57 -30 122 -67z m-4271
-147 c19 -15 49 -51 65 -79 59 -103 30 -194 -81 -249 -30 -16 -67 -28 -83 -28
-74 0 -173 104 -183 193 -16 142 169 249 282 163z m4029 -181 c20 -8 36 -21
36 -28 -1 -6 -15 -28 -33 -49 -29 -32 -34 -35 -51 -22 -16 11 -23 11 -47 -7
-46 -32 -46 -56 -3 -100 49 -50 99 -62 126 -29 20 25 24 60 7 77 -13 13 38 96
55 90 21 -7 56 -70 56 -101 -1 -69 -81 -176 -145 -192 -92 -23 -234 85 -235
179 0 34 40 114 72 144 25 24 84 52 109 53 9 0 33 -7 53 -15z m-3798 -242 c-6
-57 -10 -103 -7 -103 4 0 31 23 61 50 l55 49 38 -37 c35 -34 36 -37 20 -53
-88 -84 -238 -219 -243 -219 -4 0 -20 17 -37 38 l-30 37 12 102 11 103 -26
-23 c-14 -12 -38 -34 -54 -49 -15 -16 -33 -28 -40 -27 -6 0 -24 16 -41 36
l-29 36 99 91 c55 50 111 103 125 119 l25 27 37 -37 37 -38 -13 -102z m3535
-42 l24 -20 -35 -36 c-26 -27 -40 -35 -57 -30 -25 6 -67 -28 -60 -48 6 -17 33
-10 77 19 72 48 148 44 180 -9 36 -58 22 -113 -42 -173 -64 -61 -120 -78 -176
-55 -41 17 -40 33 5 70 26 22 43 28 62 25 32 -7 82 39 64 57 -7 7 -35 -2 -92
-31 -73 -37 -85 -41 -110 -30 -36 15 -71 62 -71 96 0 59 63 139 134 170 43 19
70 17 97 -5z m-3189 -171 c40 -35 46 -44 38 -63 -4 -12 -30 -88 -56 -169 -25
-82 -51 -148 -56 -148 -5 0 -27 14 -49 32 -33 27 -39 36 -34 59 5 22 0 32 -35
59 -37 29 -44 31 -65 20 -21 -11 -28 -9 -65 20 -22 18 -40 36 -38 41 4 11 289
189 303 189 6 0 31 -18 57 -40z m2784 -132 c18 -35 19 -35 -65 -86 -36 -21
-67 -44 -69 -50 -9 -28 31 -21 88 14 58 36 61 37 75 18 16 -20 29 -54 23 -58
-1 -2 -31 -20 -66 -40 -55 -33 -61 -40 -50 -54 7 -10 13 -18 14 -20 1 -1 36
18 78 43 42 25 78 45 80 45 6 0 49 -71 45 -74 -2 -1 -38 -22 -79 -46 -41 -24
-96 -56 -123 -72 -26 -15 -51 -28 -56 -28 -7 0 -103 158 -178 292 -2 4 11 14
29 23 18 8 76 42 128 73 52 32 98 57 103 55 4 -3 14 -18 23 -35z m-2571 -15
c25 -16 45 -31 45 -34 0 -7 -83 -159 -106 -195 -15 -22 -14 -24 15 -38 17 -9
46 -27 66 -40 20 -14 41 -26 47 -28 7 -3 3 -19 -11 -46 l-22 -42 -47 27 c-26
14 -58 34 -72 43 -14 9 -41 24 -61 34 -73 38 -73 38 -45 93 14 26 44 80 66
118 22 39 48 85 57 103 9 17 18 32 19 32 2 0 24 -12 49 -27z m2242 -173 c36
-22 68 -64 59 -79 -4 -5 -20 -12 -36 -16 -16 -4 -32 -10 -35 -15 -3 -5 -22 2
-41 15 -33 23 -38 23 -64 10 -36 -18 -41 -35 -28 -82 14 -53 45 -93 71 -93 36
0 65 27 69 62 3 27 9 33 47 46 53 18 64 8 58 -56 -8 -77 -98 -142 -195 -142
-63 0 -108 30 -140 92 -58 112 -33 196 72 248 69 35 118 38 163 10z m-1690
-72 c26 -13 54 -36 65 -53 20 -33 24 -70 8 -80 -17 -11 -93 18 -98 37 -2 11
-17 25 -32 33 -24 13 -30 13 -40 0 -10 -12 -1 -21 52 -55 72 -46 97 -75 98
-108 0 -31 -25 -77 -52 -96 -49 -34 -167 -12 -229 43 -34 30 -41 42 -41 74 0
21 2 41 5 44 3 3 28 -2 56 -12 36 -12 51 -22 53 -37 4 -26 57 -51 79 -37 16
11 3 23 -76 72 -55 35 -79 77 -71 122 6 31 36 66 66 79 28 11 111 -3 157 -26z
m1347 -60 c9 -29 23 -80 31 -113 9 -33 22 -82 30 -110 12 -45 12 -51 -2 -62
-9 -7 -26 -13 -38 -13 -12 0 -26 -5 -31 -10 -8 -8 -14 -7 -21 2 -14 17 -95
319 -87 327 4 5 74 27 96 30 3 1 13 -23 22 -51z m-1044 -10 c74 -12 137 -23
138 -24 2 -2 1 -21 -3 -44 -8 -47 3 -45 -125 -21 -57 11 -77 4 -67 -22 4 -10
28 -18 71 -22 37 -4 69 -12 72 -17 3 -5 3 -25 0 -44 -7 -34 -7 -34 -49 -28
-23 3 -56 10 -74 14 -28 7 -32 5 -38 -17 -3 -14 -5 -26 -3 -28 2 -1 40 -7 86
-13 95 -13 106 -18 97 -41 -4 -9 -8 -24 -11 -35 -5 -27 -6 -27 -65 -15 -30 6
-94 17 -143 24 -48 8 -90 15 -92 17 -2 3 12 104 43 301 3 20 11 37 17 37 6 0
72 -10 146 -22z m885 -20 c-4 -24 -17 -88 -30 -143 -13 -55 -26 -116 -29 -136
-6 -33 -11 -38 -51 -48 -84 -21 -85 -20 -153 109 -18 36 -50 96 -69 133 -20
37 -34 69 -32 71 2 2 30 7 61 11 l56 7 27 -58 c15 -33 36 -79 47 -104 24 -57
32 -45 47 74 6 50 15 94 21 100 8 8 36 15 103 25 5 0 6 -18 2 -41z m-435 -23
c68 -35 82 -115 29 -167 l-30 -31 36 -68 c19 -37 32 -69 28 -72 -5 -2 -33 -3
-63 -3 l-55 1 -29 63 c-22 47 -35 62 -50 62 -19 0 -21 -6 -21 -57 l0 -58 -55
0 -55 0 -3 160 c-1 87 0 165 2 172 8 20 227 18 266 -2z"/>
<path d="M3442 5638 c-24 -39 -27 -88 -5 -95 19 -7 34 34 31 85 l-3 47 -23
-37z"/>
<path d="M3220 5620 c0 -41 21 -57 34 -24 13 34 7 64 -14 64 -17 0 -20 -7 -20
-40z"/>
<path d="M3658 5613 c-25 -27 -36 -113 -16 -113 21 0 40 50 36 95 -3 36 -3 37
-20 18z"/>
<path d="M1809 5314 c-10 -12 -8 -19 9 -36 17 -18 24 -19 36 -9 11 10 13 18 6
31 -13 25 -36 31 -51 14z"/>
<path d="M4289 5469 c-9 -17 -8 -23 2 -30 18 -11 30 -7 43 14 8 13 7 20 -4 27
-22 14 -28 12 -41 -11z"/>
<path d="M4194 5396 c-13 -55 43 -88 79 -48 25 27 21 35 -23 55 -50 21 -48 22
-56 -7z"/>
<path d="M4837 5083 c-13 -15 -13 -20 -1 -30 17 -17 29 -16 44 2 10 12 10 18
0 30 -16 19 -23 19 -43 -2z"/>
<path d="M4708 5035 c-10 -22 -9 -29 10 -47 21 -21 22 -22 58 -4 l37 17 -28
30 c-35 36 -62 37 -77 4z"/>
<path d="M3160 4718 c-6 -35 -14 -124 -16 -198 -8 -201 26 -385 98 -538 32
-67 30 -82 -8 -82 -96 0 -166 -138 -118 -233 27 -53 54 -76 109 -92 47 -13 57
-13 96 0 98 35 149 135 113 221 -14 33 -14 34 23 57 21 13 58 36 83 50 87 49
251 174 332 253 82 80 176 197 199 246 15 34 7 44 -75 102 -164 114 -407 207
-670 256 -159 29 -152 31 -166 -42z"/>
<path d="M2759 4735 c-3 -2 -29 -8 -59 -14 -126 -22 -202 -49 -355 -127 -99
-50 -164 -88 -235 -137 -30 -21 -76 -52 -102 -70 -52 -35 -56 -45 -31 -85 18
-29 142 -176 171 -203 113 -105 311 -225 430 -260 47 -14 48 -15 26 -44 -57
-76 -19 -202 73 -241 49 -21 101 -17 150 11 111 66 105 234 -12 289 -19 9 -35
21 -35 26 0 4 9 46 20 92 65 275 71 520 18 726 -8 33 -15 42 -33 42 -12 0 -24
-2 -26 -5z"/>
<path d="M4305 4084 c-137 -90 -249 -197 -340 -324 -59 -84 -122 -203 -131
-249 -7 -34 -19 -39 -43 -17 -9 8 -37 20 -63 27 -69 19 -149 -7 -183 -59 -119
-183 121 -375 267 -213 20 21 37 44 40 52 4 11 17 10 74 -8 207 -67 363 -93
548 -93 153 0 262 14 270 36 6 17 -13 193 -23 214 -5 8 -14 39 -21 69 -31 131
-154 391 -260 548 -17 24 -30 48 -30 54 0 20 -38 7 -105 -37z"/>
<path d="M1658 4008 c-91 -125 -165 -292 -213 -481 -34 -137 -69 -326 -61
-334 11 -12 193 -33 281 -33 176 0 336 35 492 106 28 13 54 24 57 24 2 0 10
-17 17 -37 19 -59 46 -90 94 -109 157 -59 288 107 195 248 -36 54 -84 74 -155
63 -26 -3 -53 -9 -60 -11 -7 -3 -26 19 -45 53 -37 66 -138 215 -173 255 -132
152 -327 318 -372 318 -6 0 -32 -28 -57 -62z"/>
<path d="M3625 3009 c-31 -17 -85 -79 -91 -106 -4 -13 -4 -49 -2 -81 5 -53 8
-59 54 -99 45 -40 52 -43 106 -43 32 0 67 5 78 12 10 7 21 10 23 8 3 -3 33
-52 67 -110 103 -171 209 -300 350 -425 51 -44 171 -125 186 -125 26 2 141
187 201 325 57 129 133 421 136 523 2 62 1 65 -23 68 -14 1 -56 7 -95 13 -144
22 -365 10 -495 -25 -72 -20 -190 -64 -215 -81 -28 -19 -32 -17 -39 22 -8 40
-55 99 -97 121 -33 16 -115 18 -144 3z"/>
<path d="M2366 2934 c-37 -21 -74 -62 -82 -92 -6 -22 -11 -23 -48 -18 -22 4
-86 18 -141 31 -122 31 -325 48 -460 40 -109 -7 -123 -9 -205 -28 -63 -14 -61
-6 -34 -157 29 -159 164 -451 285 -615 16 -22 46 -61 65 -88 l35 -47 31 22
c16 13 41 31 55 40 99 64 265 248 338 373 37 63 91 185 100 225 4 16 8 30 10
30 1 0 22 -9 46 -20 66 -30 127 -26 177 10 52 37 76 82 75 141 -1 94 -66 161
-161 166 -39 2 -66 -2 -86 -13z"/>
<path d="M3281 2598 c-67 -45 -92 -110 -77 -193 7 -37 76 -115 102 -115 25 0
24 -20 -5 -122 -56 -192 -83 -453 -62 -599 7 -46 17 -105 23 -131 9 -47 10
-48 48 -48 181 0 476 121 771 316 97 64 97 64 58 121 -150 216 -355 385 -562
464 l-83 31 23 46 c28 55 29 103 4 158 -27 59 -72 87 -146 92 -50 3 -65 0 -94
-20z"/>
<path d="M2760 2572 c-54 -30 -81 -84 -77 -157 2 -33 6 -67 10 -75 6 -12 -17
-31 -95 -80 -149 -93 -210 -141 -334 -265 -97 -97 -214 -250 -214 -280 0 -18
112 -94 205 -140 108 -53 200 -90 275 -111 30 -8 80 -22 110 -30 60 -16 272
-54 306 -54 17 0 22 11 34 78 9 45 14 134 13 217 -1 130 -8 184 -43 324 -13
52 -67 187 -87 216 -17 25 -17 35 2 35 9 0 33 9 55 20 88 45 122 145 78 229
-33 64 -66 84 -141 89 -47 2 -70 -1 -97 -16z"/>
<path d="M5439 3625 c-3 -3 -3 -22 0 -43 l7 -37 61 2 c76 2 126 25 121 56 -3
21 -9 22 -93 25 -50 1 -93 0 -96 -3z"/>
<path d="M558 2505 c-8 -8 3 -55 14 -55 5 0 28 10 51 22 l42 22 -30 7 c-39 9
-70 10 -77 4z"/>
<path d="M945 1688 c-38 -21 -75 -62 -75 -83 0 -12 11 -34 25 -50 31 -32 61
-29 115 14 42 34 49 67 20 104 -23 28 -52 34 -85 15z"/>
<path d="M1535 1049 c-5 -6 -23 -21 -40 -34 -30 -23 -30 -24 -10 -39 26 -20
34 -20 41 2 5 14 19 48 32 75 5 10 -11 8 -23 -4z"/>
<path d="M3004 561 c-2 -2 -4 -15 -4 -28 0 -20 5 -23 39 -23 46 0 69 21 46 40
-15 12 -72 20 -81 11z"/>
</g>
</svg>
